# xmcd
# Track frame offsets:
# 150
# 16690
# 34298
# 53233
# 72553
# 98805
# 118780
# 142443
# 160113
# 187743
# 209713
# 232925
# 254315
#
# Disc length: 3620 seconds
# Revision: 0
# Processed by: cddbd v1.4PL0 Copyright (c) Steve Scherf et al.
# Submitted via: VisiTrax 2.9.7.197 - For more info visit www.synapsa.com
#
DISCID=ba0e220d
DTITLE=Brother Montgomery, Little - Little Brother Montgomery - Blue Master
DTITLE=s Vol. 7
DYEAR=1991
DGENRE=Blues
TTITLE0=I Must Get Mine In Front
TTITLE1=Willie Anderson's Blues
TTITLE2=Jim Jam Blues
TTITLE3=Vanada Anderson Blues
TTITLE4=44 (Vicksburg) Blues
TTITLE5=Hesitating Blues
TTITLE6=Bob Martin Blues
TTITLE7=Mama, You Don't Mean Me No Good
TTITLE8=Cooney Vaughn's Tremblin' Blues
TTITLE9=Hard, Oh Lord!
TTITLE10=Miles Davis' Blues
TTITLE11=Yodlin' Blues
TTITLE12=Shreveport Farewell
EXTD=Storyville, STCD 8007
EXTT0=
EXTT1=
EXTT2=
EXTT3=
EXTT4=
EXTT5=
EXTT6=
EXTT7=
EXTT8=
EXTT9=
EXTT10=
EXTT11=
EXTT12=
PLAYORDER=
